<?xml version="1.0" encoding="utf-8"?>
<!-- Generator: Adobe Illustrator 21.0.0, SVG Export Plug-In . SVG Version: 6.00 Build 0)  -->
<svg version="1.1" id="Layer_1" xmlns="http://www.w3.org/2000/svg" xmlns:xlink="http://www.w3.org/1999/xlink" x="0px" y="0px"
	 viewBox="0 0 238.5 81" style="enable-background:new 0 0 238.5 81;" xml:space="preserve">
<g>
	<path d="M211.5,77.5h-77l-23-27.6V30.5H135c0.4,0,3.5-0.1,3.5-3.5s-3.1-3.5-3.5-3.5h-30.5v54h-47V33.9l-17,17l-17-17v43.6h-20v-74
		h19.4l17.6,17.6L58.1,3.5h19.4v54h7v-54H135c0.2,0,19,0.2,19,19v9c0,0.2-0.2,17.6-16.9,18.9l5.9,7.1h64c4.4,0,8-3.6,8-8v-18
		c0-4.4-3.6-8-8-8h-18c-4.4,0-8,3.6-8,8v19h-20V27c0-13,10.5-23.5,23.5-23.5h27C224.5,3.5,235,14,235,27v27
		C235,67,224.5,77.5,211.5,77.5z M135.5,75.5h76c11.9,0,21.5-9.6,21.5-21.5V27c0-11.9-9.6-21.5-21.5-21.5h-27
		C172.6,5.5,163,15.1,163,27v21.5h16v-17c0-5.5,4.5-10,10-10h18c5.5,0,10,4.5,10,10v18c0,5.5-4.5,10-10,10h-65l-9.2-11h2.1
		c7,0,12-2.8,14.8-8.4c2.1-4.2,2.2-8.6,2.2-8.6v-9c0-7-2.8-12-8.4-14.8c-4.2-2.1-8.6-2.2-8.6-2.2H86.5v54h-11v-54H58.9L40.5,23.9
		L22.1,5.5H5.5v70h16V29.1l19,19l19-19v46.4h43v-54H135c1.9,0,5.5,1.1,5.5,5.5s-3.6,5.5-5.5,5.5h-21.5v16.6L135.5,75.5z"/>
</g>
</svg>
